<svg width="25" height="24" viewBox="0 0 25 24" fill="none" xmlns="http://www.w3.org/2000/svg">
<path d="M22.6 22H2.60001C2.19001 22 1.85001 21.66 1.85001 21.25C1.85001 20.84 2.19001 20.5 2.60001 20.5H22.6C23.01 20.5 23.35 20.84 23.35 21.25C23.35 21.66 23.01 22 22.6 22Z" fill="#F0F0F0"/>
<path d="M10.35 4V22H14.85V4C14.85 2.9 14.4 2 13.05 2H12.15C10.8 2 10.35 2.9 10.35 4Z" fill="#F0F0F0"/>
<path d="M3.60001 10V22H7.60001V10C7.60001 8.9 7.20001 8 6.00001 8H5.20001C4.00001 8 3.60001 8.9 3.60001 10Z" fill="#F0F0F0"/>
<path d="M17.6 15V22H21.6V15C21.6 13.9 21.2 13 20 13H19.2C18 13 17.6 13.9 17.6 15Z" fill="#F0F0F0"/>
</svg>
