<svg width="25" height="24" viewBox="0 0 25 24" fill="none" xmlns="http://www.w3.org/2000/svg">
<path d="M12.2 2C6.68 2 2.2 6.48 2.2 12C2.2 17.52 6.68 22 12.2 22C17.72 22 22.2 17.52 22.2 12C22.2 6.48 17.72 2 12.2 2ZM12.2 8.75C11.79 8.75 11.45 8.41 11.45 8C11.45 7.59 11.79 7.25 12.2 7.25C14.82 7.25 16.95 9.38 16.95 12C16.95 14.62 14.82 16.75 12.2 16.75C11.79 16.75 11.45 16.41 11.45 16C11.45 15.59 11.79 15.25 12.2 15.25C13.99 15.25 15.45 13.79 15.45 12C15.45 10.21 13.99 8.75 12.2 8.75ZM12.2 19.75C7.93 19.75 4.45 16.27 4.45 12C4.45 11.59 4.79 11.25 5.2 11.25C5.61 11.25 5.95 11.59 5.95 12C5.95 15.45 8.75 18.25 12.2 18.25C15.65 18.25 18.45 15.45 18.45 12C18.45 8.55 15.65 5.75 12.2 5.75C11.79 5.75 11.45 5.41 11.45 5C11.45 4.59 11.79 4.25 12.2 4.25C16.47 4.25 19.95 7.73 19.95 12C19.95 16.27 16.47 19.75 12.2 19.75Z" fill="#F0F0F0"/>
</svg>
