<svg width="17" height="24" viewBox="0 0 17 24" fill="none" xmlns="http://www.w3.org/2000/svg">
<g clip-path="url(#clip0_653_276)">
<path d="M8.47997 0C5.32406 0 2.75838 2.48358 2.75838 5.5385C2.75838 8.59342 5.17951 10.9604 8.33542 11.0653C8.43179 11.0537 8.52815 11.0537 8.60042 11.0653H8.68474C11.7684 10.9604 14.1895 8.53512 14.2016 5.5385C14.2016 2.48358 11.6359 0 8.47997 0Z" fill="#F0F0F0"/>
<path d="M16.96 17.9097C16.96 19.3556 16.1168 20.6848 14.5991 21.6759C12.9127 22.7719 10.6963 23.32 8.47997 23.32C6.26361 23.32 4.04724 22.7719 2.36088 21.6759C0.843151 20.6965 -3.05176e-05 19.3672 -3.05176e-05 17.933C-3.05176e-05 16.4989 0.843151 15.158 2.37292 14.1669C5.7577 11.9981 11.2384 11.9981 14.5991 14.1669C16.1168 15.1463 16.9479 16.4755 16.96 17.9097Z" fill="#F0F0F0"/>
</g>
<defs>
<clipPath id="clip0_653_276">
<rect width="16.96" height="23.32" fill="white"/>
</clipPath>
</defs>
</svg>
