<svg width="25" height="24" viewBox="0 0 25 24" fill="none" xmlns="http://www.w3.org/2000/svg">
<path d="M22.8 7.54844C22.8 8.20844 22.26 8.74844 21.6 8.74844H3.99999C3.33999 8.74844 2.79999 8.20844 2.79999 7.54844V7.53844C2.79999 5.24844 4.64999 3.39844 6.93999 3.39844H18.65C20.94 3.39844 22.8 5.25844 22.8 7.54844Z" fill="#F0F0F0"/>
<path d="M2.79999 11.45V16.46C2.79999 18.75 4.64999 20.6 6.93999 20.6H18.65C20.94 20.6 22.8 18.74 22.8 16.45V11.45C22.8 10.79 22.26 10.25 21.6 10.25H3.99999C3.33999 10.25 2.79999 10.79 2.79999 11.45ZM8.79999 17.25H6.79999C6.38999 17.25 6.04999 16.91 6.04999 16.5C6.04999 16.09 6.38999 15.75 6.79999 15.75H8.79999C9.20999 15.75 9.54999 16.09 9.54999 16.5C9.54999 16.91 9.20999 17.25 8.79999 17.25ZM15.3 17.25H11.3C10.89 17.25 10.55 16.91 10.55 16.5C10.55 16.09 10.89 15.75 11.3 15.75H15.3C15.71 15.75 16.05 16.09 16.05 16.5C16.05 16.91 15.71 17.25 15.3 17.25Z" fill="#F0F0F0"/>
</svg>
